<?xml version="1.0" encoding="utf-8"?>
<!-- Generator: Adobe Illustrator 22.0.1, SVG Export Plug-In . SVG Version: 6.00 Build 0)  -->
<svg version="1.1" id="Logo" xmlns="http://www.w3.org/2000/svg" xmlns:xlink="http://www.w3.org/1999/xlink" x="0px" y="0px"
	 viewBox="0 0 273.8 147.1" style="enable-background:new 0 0 273.8 147.1;" xml:space="preserve">
<style type="text/css">
	.st0{fill:#FF7276;}
</style>
<path class="st0" d="M268.6,53c-0.1-19-15.8-37.6-35.1-41.5l0.5,0.1c-14.1-3.4-27.2-7.9-40-8.6l-0.5,0h-0.5
	c-11.8,0.1-23.4,6.3-31.8,15.7c-6.1,4.3-11.8,7-24.9,7c-13.4,0-19.1-2.8-25.3-7.3C102.6,9.1,91,3,79.4,3h-0.5l-0.5,0
	c-12.8,0.8-25.8,5.3-40,8.6l0.5-0.1C19.7,15.4,3.9,34.1,3.9,53c-0.5,20.4,0.6,27.7,3.3,50.2l0,0.3l0,0.3c2,12.6,9.7,28.9,35.5,34.6
	c16.2,3.6,34.9,5.2,45.1,4.9c21.9-0.9,30.7-19.6,33.9-41.6c2-13.9,3.3-23.6,3.1-35.1c0.3-0.4,1.9-2.2,10-2.2
	c7.7,0,11.7,1.4,12.6,1.7c-0.2,11.7,1.1,21.5,3.1,35.6c3.2,22,12,40.7,33.9,41.6c10.2,0.3,29-1.3,45.1-4.9
	c25.8-5.8,33.5-22,35.5-34.6l0-0.3l0-0.3C268,80.8,269.1,73.4,268.6,53z M86.1,97.1c-0.5,5.7-5.4,8.9-9,9c-6,0.1-18.2-0.7-32.1-3
	c-10.8-1.8-11.5-4.8-12-7.3c-2.4-15.3-2.1-34.3-2-37.6c0.2-3.4,5.3-8.3,10.6-9.1l0.2,0l0.2,0c11.7-2.1,22.6-4,32.3-4.5
	c5-0.2,10.9,3.7,12.3,10.6C89.2,71.7,86.7,82,86.1,97.1z M239.5,95.9c-0.5,2.4-1.4,5.4-12,7.2c-14,2.4-26.1,3.2-32.1,3
	c-3.6-0.1-8.5-3.3-9-9c-0.6-15.2-3.1-25.5-0.6-42.3l0,0.4c1.3-7,7.3-10.9,12.4-10.7c9.7,0.5,20.6,2.4,32.3,4.5l0.2,0l0.2,0
	c5.4,0.8,10.5,5.7,10.6,9.1C241.7,61.5,241.9,80.6,239.5,95.9z"/>
</svg>
